<svg width="177" height="48" viewBox="0 0 177 48" fill="none" xmlns="http://www.w3.org/2000/svg">
<g clip-path="url(#clip0_980_45969)">
<path d="M15.8397 41.6025C13.3369 41.5989 10.9377 40.6028 9.16822 38.8328C7.39879 37.0627 6.40359 34.6631 6.4009 32.1603C6.40359 29.6578 7.3989 27.2586 9.16843 25.489C10.938 23.7195 13.3372 22.7242 15.8397 22.7215H28.4891V16.3206H15.8397C11.6387 16.3206 7.60986 17.9894 4.63934 20.96C1.66882 23.9305 0 27.9594 0 32.1603C0 36.3613 1.66882 40.3901 4.63934 43.3607C7.60986 46.3312 11.6387 48 15.8397 48H28.4891L34.89 41.6025H15.8397Z" fill="#F5C938"/>
<path d="M44.3288 16.3206H38.0803L28.4891 25.9186V48L34.89 41.6025V22.7215H44.3356C46.8381 22.7242 49.2373 23.7195 51.0068 25.489C52.7764 27.2586 53.7717 29.6578 53.7744 32.1603V48L60.1753 41.6025V32.1603C60.1753 30.0796 59.7653 28.0194 58.9689 26.0972C58.1724 24.175 57.0051 22.4285 55.5335 20.9576C54.062 19.4866 52.315 18.32 50.3925 17.5244C48.4699 16.7288 46.4095 16.3197 44.3288 16.3206Z" fill="#F5C938"/>
<path d="M34.8832 0L28.4823 6.4009V22.6876L34.8832 16.3206V0Z" fill="#F5C938"/>
<path d="M28.4824 16.3206H19.6465V22.6877H28.4824V16.3206Z" fill="url(#paint0_linear_980_45969)"/>
<path d="M34.8867 41.6025V34.3989H28.4858V41.6025H34.8867Z" fill="url(#paint1_linear_980_45969)"/>
<path d="M49.4864 24.2659V17.191C47.83 16.6209 46.0903 16.3302 44.3385 16.3308H38.0799L34.8828 19.5245V22.7283H44.3284C46.1609 22.7264 47.9539 23.2609 49.4864 24.2659Z" fill="url(#paint2_linear_980_45969)"/>
<path d="M6.40167 32.1603C6.40436 29.6578 7.39967 27.2586 9.1692 25.489C10.9387 23.7195 13.338 22.7242 15.8405 22.7215H16.2706V22.6944C13.0566 22.7426 9.91208 23.637 7.15386 25.2875C4.39564 26.9381 2.12115 29.2864 0.559578 32.0959C0.373308 32.4346 0.197199 32.7733 0.03125 33.112C0.0515703 33.4235 0.0820508 33.7351 0.115918 34.0467H6.5981C6.46865 33.4262 6.40283 32.7941 6.40167 32.1603Z" fill="url(#paint3_linear_980_45969)"/>
<path d="M70.5926 47.7833C70.4911 47.6751 70.4353 47.5319 70.4368 47.3836V37.745H67.5039C67.43 37.746 67.3567 37.7318 67.2885 37.7033C67.2203 37.6747 67.1587 37.6324 67.1076 37.5791C67.0532 37.5264 67.0101 37.4632 66.981 37.3934C66.9518 37.3235 66.9373 37.2484 66.9383 37.1727C66.9377 37.098 66.9524 37.024 66.9815 36.9553C67.0106 36.8865 67.0535 36.8245 67.1076 36.773C67.1587 36.7197 67.2203 36.6774 67.2885 36.6488C67.3567 36.6203 67.43 36.6061 67.5039 36.6071H74.5483C74.6224 36.6067 74.6958 36.6215 74.7639 36.6507C74.8321 36.6798 74.8935 36.7226 74.9445 36.7764C74.9981 36.829 75.0406 36.8917 75.0697 36.9609C75.0987 37.0301 75.1138 37.1044 75.1138 37.1794C75.1161 37.2552 75.1029 37.3307 75.075 37.4012C75.047 37.4716 75.0049 37.5356 74.9513 37.5892C74.8979 37.6408 74.8348 37.6812 74.7655 37.7079C74.6963 37.7347 74.6224 37.7473 74.5483 37.745H71.5442V47.3836C71.5454 47.4577 71.5315 47.5313 71.5036 47.6C71.4757 47.6686 71.4342 47.731 71.3817 47.7833C71.3287 47.838 71.2649 47.8811 71.1943 47.9096C71.1238 47.9382 71.048 47.9517 70.9719 47.9492C70.9004 47.9504 70.8296 47.9362 70.7642 47.9075C70.6987 47.8789 70.6402 47.8365 70.5926 47.7833Z" fill="#F5C938"/>
<path d="M77.1831 47.7155C77.0853 47.6056 77.0321 47.463 77.0341 47.3159V37.1557C77.0321 37.0794 77.0461 37.0034 77.0752 36.9328C77.1044 36.8622 77.1481 36.7986 77.2034 36.7459C77.3143 36.6393 77.4628 36.5809 77.6166 36.5834H83.374C83.4488 36.5816 83.523 36.5951 83.5923 36.623C83.6616 36.651 83.7245 36.6928 83.7771 36.7459C83.8307 36.7995 83.8728 36.8635 83.9007 36.934C83.9287 37.0045 83.9419 37.0799 83.9396 37.1557C83.9415 37.2309 83.928 37.3058 83.9001 37.3756C83.8721 37.4455 83.8303 37.5089 83.7771 37.5621C83.7253 37.6168 83.6628 37.6601 83.5934 37.6892C83.524 37.7184 83.4493 37.7328 83.374 37.7315H78.1822V41.5889H81.9076C82.061 41.5852 82.2096 41.6424 82.3208 41.7481C82.3741 41.7998 82.4161 41.862 82.4441 41.9308C82.4721 41.9996 82.4855 42.0735 82.4833 42.1478C82.4882 42.2219 82.4778 42.2962 82.4527 42.3661C82.4277 42.436 82.3885 42.5 82.3377 42.5542C82.2825 42.606 82.2176 42.6465 82.1466 42.6732C82.0757 42.7 82.0003 42.7125 81.9245 42.71H78.1991V46.7571H83.3876C83.4628 46.7558 83.5375 46.7701 83.6069 46.7993C83.6763 46.8285 83.7389 46.8718 83.7906 46.9264C83.8429 46.9782 83.8842 47.04 83.9122 47.108C83.9401 47.1761 83.954 47.2491 83.9532 47.3227C83.9566 47.3996 83.944 47.4764 83.916 47.5481C83.888 47.6199 83.8453 47.685 83.7906 47.7392C83.7379 47.7919 83.6749 47.8332 83.6056 47.8606C83.5363 47.888 83.4621 47.9008 83.3876 47.8984H77.5658C77.493 47.8952 77.4216 47.8774 77.3558 47.846C77.2901 47.8145 77.2313 47.7702 77.1831 47.7155Z" fill="#F5C938"/>
<path d="M87.8411 47.6681C87.3485 47.4496 86.905 47.134 86.5372 46.7402C86.17 46.356 85.8813 45.9039 85.6872 45.4092C85.4878 44.9057 85.3855 44.3691 85.3858 43.8276V40.7219C85.3853 40.1812 85.4888 39.6454 85.6906 39.1437C85.8831 38.642 86.1706 38.182 86.5372 37.789C86.9064 37.3976 87.3496 37.0833 87.8411 36.8645C88.3413 36.6387 88.8842 36.5232 89.4329 36.5258C90.212 36.5134 90.9779 36.7276 91.6376 37.1422C92.2111 37.5204 92.6898 38.0257 93.0364 38.6188C93.1096 38.7283 93.1507 38.8562 93.1549 38.9879C93.1547 39.0616 93.1389 39.1344 93.1086 39.2016C93.0782 39.2687 93.034 39.3286 92.9788 39.3774C92.9228 39.4319 92.8566 39.4746 92.7839 39.5031C92.7112 39.5316 92.6335 39.5453 92.5555 39.5434C92.4754 39.5469 92.3958 39.529 92.3249 39.4915C92.2541 39.4539 92.1945 39.3982 92.1524 39.33C91.91 38.8564 91.554 38.4503 91.1161 38.148C90.6118 37.8251 90.0212 37.6633 89.4227 37.6841C89.0152 37.6803 88.6117 37.7658 88.2408 37.9347C87.8876 38.0966 87.5699 38.3268 87.306 38.612C87.0558 38.9049 86.8638 39.2428 86.7404 39.6077C86.6038 39.9598 86.5337 40.3341 86.5339 40.7118V43.8343C86.5338 44.2131 86.6038 44.5886 86.7404 44.9418C86.8737 45.2946 87.0712 45.6195 87.323 45.9002C87.5833 46.1954 87.9014 46.434 88.2577 46.6013C88.6287 46.7701 89.0321 46.8557 89.4397 46.8519C90.0376 46.8722 90.6278 46.7117 91.133 46.3913C91.5654 46.0816 91.9202 45.6759 92.1694 45.206C92.2115 45.1378 92.271 45.082 92.3419 45.0445C92.4127 45.007 92.4923 44.9891 92.5724 44.9926C92.6504 44.9907 92.7281 45.0043 92.8008 45.0328C92.8735 45.0613 92.9398 45.1041 92.9957 45.1586C93.0511 45.2072 93.0954 45.2671 93.1258 45.3343C93.1562 45.4014 93.1719 45.4743 93.1718 45.548C93.1676 45.6797 93.1266 45.8076 93.0533 45.9172C92.7055 46.5094 92.2271 47.0144 91.6546 47.3938C90.9946 47.8066 90.2282 48.0174 89.4498 48C88.8959 48.0073 88.347 47.8941 87.8411 47.6681Z" fill="#F5C938"/>
<path d="M95.7254 47.7799C95.6715 47.7291 95.6289 47.6676 95.6003 47.5994C95.5718 47.5311 95.5578 47.4576 95.5595 47.3836V37.1727C95.5575 37.0976 95.5713 37.023 95.5998 36.9536C95.6284 36.8842 95.6712 36.8215 95.7254 36.7696C95.7788 36.7167 95.8423 36.6751 95.9121 36.6472C95.982 36.6193 96.0567 36.6056 96.1318 36.6071C96.2059 36.606 96.2795 36.6198 96.3482 36.6477C96.4168 36.6756 96.4792 36.7171 96.5315 36.7696C96.5861 36.8214 96.6294 36.8839 96.6586 36.9533C96.6877 37.0227 96.7021 37.0974 96.7008 37.1727V42.0834H102.343V37.1727C102.342 37.0979 102.356 37.0236 102.385 36.9548C102.414 36.8859 102.458 36.824 102.512 36.773C102.565 36.7199 102.628 36.6779 102.697 36.6494C102.766 36.6209 102.841 36.6065 102.915 36.6071C102.99 36.6053 103.064 36.6188 103.134 36.6468C103.203 36.6747 103.266 36.7165 103.318 36.7696C103.372 36.8222 103.413 36.8851 103.441 36.9544C103.469 37.0237 103.483 37.098 103.481 37.1727V47.3836C103.483 47.4576 103.469 47.5311 103.44 47.5994C103.412 47.6676 103.369 47.7291 103.315 47.7799C103.262 47.8328 103.198 47.8744 103.128 47.9023C103.059 47.9303 102.984 47.9439 102.909 47.9424C102.835 47.9436 102.761 47.9297 102.692 47.9018C102.624 47.8739 102.561 47.8324 102.509 47.7799C102.455 47.7291 102.413 47.6676 102.384 47.5994C102.355 47.5311 102.341 47.4576 102.343 47.3836V43.2315H96.7008V47.3904C96.7018 47.4646 96.6872 47.5382 96.6581 47.6064C96.6289 47.6747 96.5858 47.7361 96.5315 47.7866C96.4792 47.8392 96.4168 47.8807 96.3482 47.9086C96.2795 47.9365 96.2059 47.9503 96.1318 47.9492C96.0562 47.9498 95.9812 47.9351 95.9114 47.906C95.8415 47.8769 95.7783 47.834 95.7254 47.7799Z" fill="#F5C938"/>
<path d="M106.15 47.7731C106.094 47.7196 106.05 47.6548 106.02 47.583C105.991 47.5112 105.978 47.434 105.98 47.3565V40.705C105.979 40.1733 106.068 39.6452 106.245 39.1437C106.412 38.6599 106.675 38.2144 107.017 37.8331C107.369 37.4389 107.803 37.1248 108.287 36.9119C108.805 36.6831 109.366 36.5677 109.933 36.5732C110.526 36.5646 111.114 36.68 111.66 36.9119C112.161 37.1269 112.61 37.4468 112.977 37.85C113.329 38.2452 113.601 38.7054 113.777 39.2047C113.964 39.7297 114.059 40.2831 114.058 40.8405V47.3396C114.06 47.417 114.046 47.4939 114.017 47.5655C113.987 47.6372 113.944 47.7021 113.888 47.7562C113.834 47.8114 113.769 47.8549 113.698 47.884C113.626 47.9131 113.549 47.9273 113.472 47.9255C113.394 47.9269 113.317 47.9127 113.245 47.8836C113.172 47.8545 113.107 47.8112 113.052 47.7562C112.997 47.7021 112.953 47.6372 112.924 47.5655C112.895 47.4939 112.881 47.417 112.883 47.3396V40.8947C112.886 40.4673 112.813 40.0428 112.666 39.6416C112.537 39.2659 112.333 38.9203 112.066 38.6256C111.802 38.3375 111.482 38.1069 111.125 37.9482C110.756 37.7907 110.358 37.7112 109.956 37.7145C109.568 37.7099 109.182 37.7836 108.822 37.9313C108.482 38.073 108.179 38.2895 107.935 38.5646C107.679 38.8479 107.482 39.1796 107.355 39.54C107.217 39.9338 107.149 40.3486 107.152 40.766V47.3328C107.155 47.4103 107.141 47.4875 107.112 47.5593C107.083 47.6311 107.039 47.6959 106.983 47.7494C106.929 47.804 106.865 47.8472 106.794 47.8763C106.723 47.9054 106.646 47.9198 106.57 47.9187C106.494 47.9233 106.417 47.9128 106.345 47.8878C106.273 47.8628 106.207 47.8238 106.15 47.7731Z" fill="#F5C938"/>
<path d="M118.857 47.685C118.362 47.4788 117.909 47.1825 117.522 46.8113C117.147 46.4407 116.847 46.0015 116.638 45.5175C116.428 45.0299 116.321 44.5042 116.323 43.9732V40.5865C116.322 40.0545 116.429 39.5277 116.638 39.0387C116.849 38.5547 117.149 38.1146 117.522 37.7416C117.905 37.3639 118.359 37.0648 118.857 36.8611C119.37 36.6523 119.918 36.5465 120.472 36.5495C121.024 36.5474 121.57 36.6533 122.081 36.8611C122.578 37.0649 123.03 37.364 123.412 37.7416C123.788 38.1128 124.088 38.5533 124.296 39.0387C124.508 39.527 124.617 40.0541 124.614 40.5865V43.9732C124.617 44.5046 124.508 45.0306 124.296 45.5175C124.089 46.0028 123.789 46.4425 123.412 46.8113C123.024 47.181 122.572 47.4771 122.078 47.685C121.569 47.8959 121.023 48.003 120.472 48C119.918 48.0036 119.369 47.8965 118.857 47.685ZM121.661 46.625C122.02 46.4791 122.348 46.2652 122.626 45.9951C122.891 45.7344 123.102 45.4235 123.246 45.0807C123.393 44.7324 123.468 44.358 123.466 43.98V40.5763C123.467 40.1995 123.392 39.8264 123.246 39.479C123.103 39.1347 122.892 38.8226 122.626 38.5612C122.348 38.2911 122.02 38.0772 121.661 37.9313C121.284 37.7778 120.88 37.7007 120.472 37.7044C120.064 37.7001 119.658 37.7772 119.28 37.9313C118.921 38.0797 118.593 38.2933 118.311 38.5612C118.045 38.8232 117.832 39.135 117.685 39.479C117.536 39.8257 117.46 40.1991 117.461 40.5763V43.98C117.46 44.358 117.535 44.7324 117.682 45.0807C117.827 45.4254 118.041 45.7366 118.311 45.9951C118.593 46.263 118.921 46.4766 119.28 46.625C119.658 46.7791 120.064 46.8562 120.472 46.8519C120.88 46.8534 121.284 46.774 121.661 46.6182V46.625Z" fill="#F5C938"/>
<path d="M127.381 47.7257C127.283 47.6187 127.229 47.4781 127.232 47.3328V37.1727C127.23 37.0956 127.243 37.0189 127.272 36.9472C127.301 36.8756 127.343 36.8106 127.398 36.7561C127.45 36.7025 127.512 36.6601 127.581 36.6315C127.649 36.6029 127.723 36.5889 127.798 36.5901C127.874 36.5885 127.949 36.6023 128.02 36.6309C128.09 36.6594 128.154 36.702 128.207 36.7561C128.264 36.8096 128.308 36.8743 128.338 36.9461C128.368 37.0178 128.382 37.095 128.38 37.1727V46.7402H133.569C133.643 46.7384 133.718 46.7519 133.787 46.7798C133.856 46.8078 133.919 46.8496 133.972 46.9027C134.024 46.9537 134.065 47.0149 134.093 47.0824C134.121 47.15 134.135 47.2225 134.134 47.2956C134.138 47.3725 134.125 47.4493 134.097 47.521C134.069 47.5928 134.026 47.6579 133.972 47.7121C133.919 47.7648 133.856 47.8061 133.787 47.8335C133.717 47.8609 133.643 47.8737 133.569 47.8713H127.747C127.679 47.8756 127.611 47.8647 127.548 47.8395C127.484 47.8144 127.428 47.7755 127.381 47.7257Z" fill="#F5C938"/>
<path d="M137.88 47.685C137.385 47.4779 136.933 47.1818 136.546 46.8113C136.171 46.4415 135.872 46.002 135.665 45.5175C135.452 45.0306 135.344 44.5045 135.347 43.9732V40.5865C135.344 40.0541 135.453 39.527 135.665 39.0387C135.873 38.5541 136.172 38.1138 136.546 37.7416C136.929 37.3646 137.382 37.0656 137.88 36.8611C138.393 36.6527 138.942 36.5468 139.495 36.5495C140.047 36.5471 140.593 36.6529 141.104 36.8611C141.602 37.064 142.056 37.3632 142.438 37.7416C142.812 38.1146 143.112 38.5547 143.322 39.0387C143.532 39.5277 143.639 40.0545 143.637 40.5865V43.9732C143.64 44.5042 143.532 45.0299 143.322 45.5175C143.114 46.0015 142.813 46.4407 142.438 46.8113C142.049 47.1804 141.595 47.4764 141.101 47.685C140.592 47.8959 140.046 48.003 139.495 48C138.941 48.0032 138.392 47.8962 137.88 47.685ZM140.684 46.625C141.043 46.4791 141.371 46.2652 141.649 45.9951C141.915 45.7344 142.125 45.4235 142.269 45.0807C142.416 44.7324 142.491 44.358 142.489 43.98V40.5763C142.49 40.1995 142.415 39.8264 142.269 39.479C142.126 39.1347 141.915 38.8226 141.649 38.5612C141.371 38.2911 141.043 38.0772 140.684 37.9313C140.307 37.7778 139.903 37.7007 139.495 37.7044C139.087 37.7001 138.682 37.7772 138.303 37.9313C137.944 38.0797 137.616 38.2932 137.335 38.5612C137.068 38.8224 136.856 39.1345 136.712 39.479C136.563 39.8257 136.487 40.1991 136.488 40.5763V43.98C136.485 44.3577 136.559 44.7322 136.705 45.0807C136.85 45.4254 137.064 45.7366 137.335 45.9951C137.616 46.263 137.944 46.4766 138.303 46.625C138.682 46.7791 139.087 46.8562 139.495 46.8519C139.9 46.8521 140.3 46.7727 140.674 46.6182L140.684 46.625Z" fill="#F5C938"/>
<path d="M148.612 47.6681C148.12 47.4488 147.677 47.1333 147.309 46.7402C146.941 46.356 146.653 45.9039 146.459 45.4092C146.26 44.9055 146.159 44.3689 146.16 43.8276V40.7219C146.159 40.1815 146.256 39.6454 146.448 39.1404C146.629 38.6474 146.904 38.1943 147.258 37.806C147.615 37.4141 148.048 37.0995 148.531 36.8814C149.028 36.6549 149.567 36.5393 150.113 36.5427C150.892 36.531 151.658 36.745 152.318 37.1591C152.891 37.5358 153.369 38.0415 153.713 38.6357C153.788 38.7472 153.83 38.8774 153.835 39.0117C153.835 39.0846 153.82 39.1568 153.79 39.2234C153.76 39.29 153.717 39.3494 153.662 39.3977C153.549 39.5054 153.398 39.5639 153.242 39.5603C153.162 39.5638 153.082 39.5459 153.012 39.5084C152.941 39.4709 152.881 39.4151 152.839 39.3469C152.596 38.874 152.24 38.4682 151.803 38.165C151.297 37.8455 150.707 37.684 150.109 37.701C149.707 37.6946 149.309 37.7791 148.944 37.9482C148.598 38.1133 148.291 38.3499 148.044 38.6425C147.8 38.9253 147.613 39.2517 147.491 39.6043C147.364 39.9584 147.298 40.332 147.298 40.7084V43.831C147.299 44.2093 147.368 44.5845 147.502 44.9384C147.637 45.2923 147.838 45.6175 148.094 45.8969C148.355 46.1921 148.673 46.4307 149.029 46.5979C149.398 46.7664 149.799 46.852 150.204 46.8485C150.813 46.8582 151.411 46.6822 151.918 46.3439C152.363 46.0203 152.729 45.6015 152.992 45.1179V43.2044H151.447C151.372 43.206 151.297 43.1921 151.227 43.1636C151.157 43.135 151.094 43.0924 151.041 43.0385C150.986 42.9858 150.943 42.9226 150.914 42.8528C150.885 42.7829 150.87 42.7078 150.871 42.6321C150.871 42.5571 150.886 42.4827 150.915 42.4139C150.945 42.345 150.989 42.2832 151.044 42.2324C151.096 42.1786 151.159 42.1358 151.228 42.1067C151.298 42.0776 151.372 42.0628 151.447 42.0631H153.462C153.618 42.0576 153.77 42.1135 153.886 42.2189C153.941 42.2698 153.985 42.3322 154.015 42.4018C154.044 42.4714 154.058 42.5465 154.055 42.6219V45.0129C154.053 45.1142 154.042 45.2152 154.021 45.3143C154.004 45.396 153.978 45.4755 153.943 45.5514C153.596 46.2601 153.074 46.8685 152.426 47.3193C152.107 47.5382 151.757 47.7061 151.386 47.8171C151.003 47.932 150.604 47.9891 150.204 47.9865C149.657 47.9948 149.114 47.8862 148.612 47.6681Z" fill="#F5C938"/>
<path d="M156.788 47.7799C156.735 47.7286 156.693 47.667 156.664 47.5989C156.636 47.5308 156.621 47.4575 156.622 47.3836V37.1727C156.619 37.0973 156.632 37.0223 156.66 36.9523C156.688 36.8823 156.731 36.819 156.785 36.7663C156.837 36.7136 156.9 36.6723 156.97 36.6449C157.039 36.6175 157.113 36.6047 157.188 36.6071C157.341 36.6033 157.49 36.6606 157.601 36.7663C157.657 36.8176 157.701 36.8805 157.73 36.9507C157.76 37.0209 157.773 37.0967 157.77 37.1727V47.3836C157.772 47.4579 157.758 47.5317 157.728 47.6001C157.699 47.6684 157.656 47.7297 157.601 47.7799C157.49 47.8865 157.341 47.9449 157.188 47.9424C157.114 47.9432 157.04 47.9292 156.972 47.9013C156.903 47.8734 156.841 47.8321 156.788 47.7799Z" fill="#F5C938"/>
<path d="M160.659 47.7155C160.56 47.6063 160.507 47.4633 160.51 47.3159V37.1557C160.508 37.0794 160.522 37.0034 160.551 36.9328C160.58 36.8622 160.624 36.7986 160.679 36.7459C160.79 36.6393 160.939 36.5809 161.093 36.5834H166.85C166.925 36.5816 166.999 36.5951 167.068 36.623C167.138 36.651 167.2 36.6928 167.253 36.7459C167.307 36.7995 167.349 36.8635 167.377 36.934C167.405 37.0045 167.418 37.0799 167.416 37.1557C167.417 37.2309 167.404 37.3058 167.376 37.3756C167.348 37.4455 167.306 37.5089 167.253 37.5621C167.201 37.6168 167.139 37.6601 167.069 37.6892C167 37.7184 166.925 37.7328 166.85 37.7315H161.658V41.5889H165.384C165.459 41.5868 165.534 41.5998 165.604 41.6271C165.675 41.6544 165.739 41.6956 165.793 41.7481C165.847 41.7998 165.889 41.862 165.917 41.9308C165.945 41.9996 165.958 42.0735 165.956 42.1478C165.958 42.222 165.944 42.2957 165.916 42.3645C165.888 42.4332 165.846 42.4955 165.793 42.5474C165.739 42.5995 165.675 42.6401 165.604 42.6669C165.534 42.6936 165.459 42.706 165.384 42.7032H161.658V46.7503H166.847C166.922 46.749 166.997 46.7634 167.066 46.7925C167.135 46.8217 167.198 46.865 167.25 46.9196C167.302 46.9714 167.343 47.0332 167.371 47.1012C167.399 47.1693 167.413 47.2423 167.412 47.3159C167.416 47.3928 167.403 47.4696 167.375 47.5414C167.347 47.6131 167.304 47.6782 167.25 47.7325C167.197 47.7851 167.134 47.8264 167.065 47.8538C166.995 47.8812 166.921 47.8941 166.847 47.8916H161.042C160.969 47.8893 160.898 47.8725 160.833 47.8423C160.767 47.812 160.708 47.7689 160.659 47.7155Z" fill="#F5C938"/>
<path d="M169.715 47.7358C169.654 47.6793 169.606 47.61 169.574 47.5327C169.542 47.4554 169.528 47.3722 169.532 47.2888C169.528 47.2145 169.542 47.1404 169.573 47.0726C169.603 47.0048 169.65 46.9454 169.708 46.8993C169.855 46.803 170.028 46.7566 170.203 46.7672H173.529C173.778 46.7663 174.024 46.712 174.25 46.6081C174.483 46.503 174.696 46.3561 174.876 46.1746C175.065 45.9798 175.214 45.7496 175.313 45.4972C175.417 45.234 175.468 44.9535 175.466 44.6709C175.47 44.39 175.413 44.1116 175.3 43.8547C175.192 43.6148 175.036 43.3994 174.843 43.2213C174.655 43.0502 174.437 42.9158 174.199 42.8251C173.967 42.7357 173.72 42.6898 173.471 42.6896H172.052C171.639 42.6915 171.229 42.6169 170.843 42.4695C170.478 42.3365 170.141 42.1354 169.851 41.8768C169.56 41.6165 169.329 41.2965 169.173 40.9387C169.013 40.5667 168.932 40.1652 168.936 39.7601C168.936 39.3383 169.019 38.9205 169.18 38.5307C169.333 38.1487 169.563 37.8026 169.857 37.5147C170.152 37.2345 170.497 37.0117 170.873 36.8577C171.252 36.6957 171.66 36.6139 172.072 36.6172H175.229C175.405 36.6081 175.58 36.6569 175.727 36.7561C175.787 36.8065 175.835 36.8705 175.866 36.9429C175.897 37.0153 175.911 37.094 175.906 37.1727C175.911 37.2543 175.897 37.3359 175.866 37.4116C175.835 37.4872 175.787 37.5548 175.727 37.6095C175.585 37.7203 175.408 37.7757 175.229 37.7653H171.883C171.649 37.7638 171.418 37.8123 171.205 37.9076C170.989 38.0017 170.792 38.1362 170.626 38.3038C170.453 38.481 170.318 38.692 170.23 38.9236C170.135 39.1641 170.085 39.4202 170.084 39.6788C170.083 39.9319 170.131 40.1828 170.227 40.4171C170.319 40.6465 170.454 40.8558 170.626 41.0335C170.794 41.2011 170.99 41.3376 171.205 41.4365C171.418 41.5329 171.649 41.5826 171.883 41.5822H173.441C173.86 41.5841 174.276 41.6633 174.667 41.8159C175.042 41.9644 175.386 42.1814 175.683 42.4559C175.97 42.7359 176.2 43.0696 176.36 43.4381C176.527 43.8144 176.612 44.2219 176.61 44.6336C176.612 45.0654 176.526 45.493 176.356 45.8901C176.191 46.2804 175.955 46.6364 175.659 46.94C175.361 47.2416 175.008 47.483 174.619 47.6512C174.227 47.8232 173.804 47.9109 173.376 47.9086H170.196C170.02 47.9142 169.848 47.8525 169.715 47.7358Z" fill="#F5C938"/>
<path d="M66.7588 28.5975C66.6988 28.5404 66.6512 28.4715 66.6192 28.3952C66.5871 28.3188 66.5712 28.2366 66.5725 28.1538V16.9776C66.5701 16.8948 66.5848 16.8123 66.6157 16.7354C66.6466 16.6585 66.693 16.5888 66.752 16.5306C66.8109 16.474 66.8805 16.4296 66.9566 16.3999C67.0327 16.3703 67.114 16.356 67.1957 16.3579H70.8229C71.4272 16.3573 72.0261 16.4722 72.5873 16.6965C73.1199 16.9027 73.605 17.2149 74.0132 17.6143C74.4162 18.0144 74.7332 18.4927 74.9445 19.0198C75.1675 19.5684 75.2825 20.1549 75.2832 20.7471V24.4725C75.2843 25.0538 75.1692 25.6296 74.9445 26.1658C74.7314 26.6849 74.4132 27.1542 74.0098 27.5442C73.601 27.9445 73.1162 28.2589 72.584 28.4688C72.0232 28.6947 71.424 28.8097 70.8195 28.8075H67.1957C67.1122 28.8052 67.0301 28.7854 66.9548 28.7492C66.8795 28.713 66.8127 28.6613 66.7588 28.5975ZM70.8229 27.5239C71.2652 27.5273 71.7042 27.4469 72.1166 27.2868C72.4953 27.1355 72.8406 26.9111 73.1326 26.6264C73.4127 26.3516 73.633 26.0218 73.7795 25.6578C73.928 25.2781 74.0028 24.8734 73.9996 24.4657V20.72C74.0013 20.3029 73.9243 19.8893 73.7727 19.5007C73.6323 19.1262 73.4141 18.7858 73.1326 18.5017C72.8412 18.217 72.4958 17.9936 72.1166 17.8446C71.7024 17.6876 71.2624 17.6095 70.8195 17.6143H67.8392V27.5239H70.8229Z" fill="#F5C938"/>
<path d="M79.2287 28.5738C79.1212 28.4539 79.0631 28.2978 79.0661 28.1369V16.9607C79.0632 16.8762 79.0783 16.792 79.1104 16.7137C79.1425 16.6355 79.1909 16.565 79.2524 16.5069C79.374 16.3895 79.5372 16.3249 79.7062 16.3274H86.0394C86.1216 16.3258 86.2033 16.3409 86.2796 16.3718C86.3558 16.4026 86.425 16.4486 86.483 16.5069C86.5423 16.5663 86.5888 16.6372 86.6196 16.7153C86.6505 16.7933 86.6651 16.8768 86.6625 16.9607C86.664 17.0434 86.6488 17.1256 86.618 17.2024C86.5872 17.2792 86.5413 17.349 86.483 17.4078C86.4257 17.4672 86.3567 17.5141 86.2803 17.5455C86.204 17.577 86.1219 17.5924 86.0394 17.5906H80.3294V21.8376H84.4442C84.5279 21.8348 84.6112 21.849 84.6892 21.8792C84.7672 21.9095 84.8382 21.9552 84.8981 22.0137C84.9562 22.0702 85.0019 22.1383 85.0322 22.2135C85.0626 22.2888 85.0769 22.3695 85.0742 22.4506C85.0769 22.5322 85.0627 22.6134 85.0324 22.6892C85.002 22.765 84.9563 22.8337 84.8981 22.8909C84.8375 22.9481 84.7662 22.9928 84.6884 23.0224C84.6105 23.0521 84.5275 23.0661 84.4442 23.0636H80.3294V27.5205H86.0394C86.1219 27.5188 86.204 27.5341 86.2803 27.5656C86.3567 27.5971 86.4257 27.644 86.483 27.7034C86.5409 27.761 86.5867 27.8297 86.6175 27.9053C86.6483 27.9809 86.6636 28.062 86.6625 28.1437C86.6654 28.2281 86.6509 28.3122 86.62 28.3908C86.5892 28.4694 86.5425 28.5409 86.483 28.6009C86.4241 28.6575 86.3546 28.7019 86.2785 28.7315C86.2023 28.7612 86.1211 28.7755 86.0394 28.7736H79.6486C79.5688 28.7705 79.4903 28.7512 79.4181 28.7169C79.3459 28.6825 79.2815 28.6338 79.2287 28.5738Z" fill="#F5C938"/>
<path d="M93.883 28.5027L89.3719 17.2181C89.3338 17.1413 89.3141 17.0566 89.3144 16.9709C89.3179 16.8097 89.3848 16.6564 89.5006 16.5442C89.5588 16.4814 89.6296 16.4317 89.7084 16.3984C89.7873 16.3651 89.8723 16.349 89.9578 16.3511C90.0784 16.3564 90.1953 16.3938 90.2965 16.4595C90.4006 16.5255 90.4812 16.6227 90.5268 16.7372L94.4622 26.6061L98.3976 16.7372C98.4409 16.6187 98.5218 16.5176 98.6278 16.4493C98.7284 16.3836 98.8464 16.3494 98.9665 16.3511C99.051 16.3486 99.135 16.3639 99.2132 16.396C99.2914 16.4281 99.362 16.4762 99.4203 16.5374C99.5343 16.6503 99.5988 16.8037 99.5998 16.9641C99.5979 17.0518 99.5783 17.1382 99.5423 17.2181L95.0718 28.4112C95.0248 28.5384 94.9508 28.6539 94.855 28.7499C94.7644 28.8284 94.6524 28.878 94.5333 28.8921H94.3741C94.2655 28.8754 94.1631 28.8307 94.077 28.7624C93.9909 28.6941 93.9241 28.6046 93.883 28.5027Z" fill="#F5C938"/>
<path d="M103.2 28.6415C103.139 28.5824 103.09 28.5113 103.057 28.4327C103.025 28.354 103.009 28.2695 103.01 28.1843V20.8588C103.008 20.2737 103.108 19.6928 103.305 19.1418C103.491 18.6097 103.78 18.1194 104.155 17.699C104.543 17.2659 105.019 16.9197 105.55 16.683C106.122 16.4354 106.739 16.3119 107.362 16.3206C108.014 16.3121 108.661 16.439 109.262 16.6932C109.814 16.9298 110.308 17.282 110.712 17.7261C111.1 18.1647 111.4 18.6741 111.596 19.2264C111.8 19.8062 111.903 20.4168 111.9 21.0316V28.1843C111.902 28.2689 111.887 28.353 111.856 28.4316C111.824 28.5102 111.777 28.5816 111.718 28.6415C111.658 28.7016 111.586 28.7489 111.508 28.7803C111.429 28.8118 111.345 28.8268 111.26 28.8244C111.175 28.8265 111.089 28.8114 111.01 28.78C110.93 28.7486 110.857 28.7015 110.796 28.6415C110.735 28.5824 110.687 28.5113 110.654 28.4327C110.621 28.354 110.605 28.2695 110.607 28.1843V21.0722C110.61 20.6026 110.531 20.1359 110.373 19.6938C110.226 19.2867 110.002 18.9118 109.713 18.5897C109.419 18.2777 109.066 18.0288 108.673 17.8582C108.268 17.6829 107.831 17.5941 107.389 17.5974C106.961 17.5934 106.536 17.6751 106.14 17.8379C105.767 17.9937 105.433 18.2309 105.164 18.5322C104.88 18.8433 104.663 19.21 104.528 19.6091C104.374 20.0442 104.299 20.5027 104.304 20.9638V28.1945C104.306 28.2797 104.291 28.3645 104.258 28.4433C104.225 28.5221 104.176 28.5931 104.114 28.6517C104.055 28.7109 103.985 28.7577 103.908 28.7891C103.83 28.8205 103.747 28.836 103.664 28.8346C103.578 28.8353 103.492 28.8186 103.412 28.7855C103.332 28.7523 103.26 28.7033 103.2 28.6415Z" fill="#F5C938"/>
<path d="M115.914 28.6415C115.853 28.5823 115.805 28.5111 115.773 28.4324C115.741 28.3537 115.725 28.2692 115.727 28.1843V20.8588C115.724 20.2739 115.823 19.6929 116.019 19.1418C116.205 18.6097 116.493 18.1194 116.869 17.699C117.257 17.2659 117.733 16.9197 118.264 16.683C118.836 16.4354 119.453 16.3119 120.076 16.3206C120.73 16.3125 121.379 16.4394 121.983 16.6932C122.536 16.9289 123.031 17.2812 123.436 17.7261C123.824 18.1647 124.124 18.6741 124.32 19.2264C124.524 19.8062 124.627 20.4168 124.624 21.0316V28.1843C124.626 28.2698 124.61 28.3547 124.576 28.4334C124.543 28.5122 124.494 28.5831 124.431 28.6415C124.309 28.7607 124.145 28.8265 123.974 28.8244C123.888 28.8265 123.803 28.8114 123.724 28.78C123.644 28.7486 123.571 28.7015 123.51 28.6415C123.449 28.5823 123.401 28.5111 123.369 28.4324C123.337 28.3537 123.322 28.2692 123.324 28.1843V24.9669H117.028V28.1843C117.03 28.2698 117.013 28.3547 116.98 28.4334C116.947 28.5122 116.897 28.5831 116.835 28.6415C116.713 28.7607 116.548 28.8265 116.378 28.8244C116.292 28.8265 116.207 28.8114 116.127 28.78C116.047 28.7486 115.975 28.7015 115.914 28.6415ZM123.317 23.6732V21.0688C123.32 20.599 123.239 20.1323 123.08 19.6904C122.929 19.2813 122.699 18.9061 122.403 18.5863C122.11 18.2736 121.756 18.0246 121.363 17.8548C120.958 17.6796 120.521 17.5907 120.079 17.594C119.651 17.5904 119.226 17.6721 118.83 17.8345C118.457 17.9914 118.124 18.2284 117.854 18.5288C117.577 18.8409 117.364 19.2045 117.228 19.599C117.075 20.0341 116.999 20.4925 117.004 20.9537V23.663L123.317 23.6732Z" fill="#F5C938"/>
<path d="M130.819 28.6686C130.708 28.5488 130.648 28.3913 130.649 28.2283V17.6211H127.422C127.34 17.6218 127.259 17.6059 127.183 17.5745C127.107 17.5431 127.039 17.4967 126.981 17.4382C126.922 17.3795 126.875 17.3092 126.844 17.2318C126.812 17.1544 126.797 17.0714 126.799 16.9878C126.798 16.9064 126.813 16.8256 126.845 16.7504C126.876 16.6753 126.923 16.6074 126.981 16.5509C127.039 16.4924 127.107 16.4461 127.183 16.4147C127.259 16.3832 127.34 16.3674 127.422 16.368H135.171C135.253 16.3666 135.335 16.3824 135.41 16.4145C135.486 16.4466 135.555 16.4942 135.611 16.5543C135.669 16.6123 135.716 16.6814 135.747 16.7576C135.779 16.8338 135.794 16.9155 135.794 16.998C135.797 17.0814 135.783 17.1647 135.752 17.2423C135.721 17.3199 135.674 17.3901 135.614 17.4484C135.556 17.5053 135.486 17.5499 135.41 17.5796C135.334 17.6093 135.252 17.6234 135.171 17.6211H131.869V28.2283C131.869 28.3099 131.853 28.3908 131.823 28.4664C131.792 28.5419 131.746 28.6106 131.689 28.6686C131.63 28.7289 131.56 28.7764 131.481 28.8079C131.403 28.8394 131.319 28.8542 131.235 28.8515C131.157 28.8521 131.079 28.8362 131.007 28.8047C130.936 28.7731 130.871 28.7268 130.819 28.6686Z" fill="#F5C938"/>
<path d="M139.329 28.6449C139.271 28.5893 139.224 28.5221 139.192 28.4474C139.161 28.3728 139.145 28.2924 139.147 28.2114V16.9709C139.143 16.8879 139.158 16.8052 139.189 16.7282C139.219 16.6511 139.266 16.5815 139.326 16.5238C139.384 16.467 139.453 16.4224 139.529 16.3928C139.604 16.3631 139.685 16.3489 139.766 16.3511C139.934 16.3479 140.097 16.4098 140.22 16.5238C140.282 16.5805 140.331 16.6497 140.363 16.7268C140.396 16.8039 140.412 16.8871 140.41 16.9709V28.2114C140.41 28.2929 140.394 28.3737 140.361 28.4484C140.329 28.5231 140.281 28.5901 140.22 28.6449C140.16 28.7037 140.089 28.7498 140.011 28.7806C139.933 28.8115 139.85 28.8264 139.766 28.8244C139.685 28.826 139.604 28.8109 139.529 28.78C139.454 28.7492 139.386 28.7032 139.329 28.6449Z" fill="#F5C938"/>
<path d="M148.443 28.5027L143.932 17.2181C143.894 17.1413 143.874 17.0566 143.874 16.9709C143.878 16.8097 143.945 16.6564 144.061 16.5442C144.119 16.4814 144.19 16.4317 144.269 16.3984C144.347 16.3651 144.432 16.349 144.518 16.3511C144.638 16.3564 144.755 16.3938 144.857 16.4595C144.961 16.5255 145.041 16.6227 145.087 16.7372L149.022 26.6061L152.958 16.7372C153.001 16.6187 153.082 16.5176 153.188 16.4493C153.289 16.3836 153.406 16.3494 153.527 16.3511C153.611 16.3486 153.695 16.3639 153.773 16.396C153.851 16.4281 153.922 16.4762 153.98 16.5374C154.094 16.6503 154.159 16.8037 154.16 16.9641C154.158 17.0518 154.138 17.1382 154.102 17.2181L149.632 28.4112C149.585 28.5384 149.511 28.6539 149.415 28.7499C149.325 28.8284 149.212 28.878 149.093 28.8921H148.934C148.826 28.8754 148.723 28.8307 148.637 28.7624C148.551 28.6941 148.484 28.6046 148.443 28.5027Z" fill="#F5C938"/>
<path d="M157.794 28.5738C157.684 28.4552 157.624 28.2985 157.628 28.1369V16.9607C157.626 16.876 157.641 16.7917 157.674 16.7135C157.707 16.6352 157.756 16.5648 157.818 16.5069C157.939 16.3895 158.102 16.325 158.271 16.3274H164.601C164.683 16.3256 164.765 16.3407 164.841 16.3715C164.918 16.4024 164.987 16.4484 165.045 16.5069C165.104 16.5663 165.151 16.6373 165.181 16.7153C165.212 16.7933 165.227 16.8768 165.224 16.9607C165.226 17.0434 165.211 17.1256 165.18 17.2024C165.149 17.2792 165.103 17.349 165.045 17.4078C164.988 17.4673 164.919 17.5143 164.842 17.5458C164.766 17.5773 164.684 17.5926 164.601 17.5906H158.878V21.8376H162.993C163.076 21.8346 163.16 21.8487 163.238 21.879C163.316 21.9092 163.387 21.9551 163.446 22.0137C163.505 22.0701 163.551 22.138 163.582 22.2133C163.613 22.2885 163.628 22.3693 163.626 22.4506C163.628 22.5324 163.613 22.6137 163.582 22.6895C163.551 22.7653 163.505 22.8338 163.446 22.8909C163.386 22.9484 163.315 22.9933 163.237 23.023C163.159 23.0526 163.076 23.0664 162.993 23.0636H158.878V27.5205H164.601C164.684 27.5186 164.766 27.5338 164.842 27.5653C164.919 27.5968 164.988 27.6438 165.045 27.7034C165.103 27.761 165.148 27.8297 165.179 27.9053C165.21 27.9809 165.225 28.062 165.224 28.1437C165.227 28.2281 165.213 28.3122 165.182 28.3908C165.151 28.4694 165.104 28.5409 165.045 28.6009C164.986 28.6578 164.917 28.7024 164.84 28.7321C164.764 28.7617 164.683 28.7759 164.601 28.7736H158.2C158.123 28.7691 158.047 28.7491 157.977 28.7148C157.907 28.6805 157.845 28.6325 157.794 28.5738Z" fill="#F5C938"/>
<path d="M169.004 28.5975C168.937 28.5352 168.884 28.459 168.85 28.3741C168.815 28.2893 168.799 28.1979 168.804 28.1064C168.799 28.0249 168.814 27.9435 168.848 27.8691C168.881 27.7947 168.933 27.7297 168.997 27.6797C169.157 27.5722 169.347 27.5198 169.539 27.5307H173.203C173.477 27.5295 173.747 27.4706 173.996 27.3579C174.249 27.2414 174.479 27.0796 174.673 26.8804C174.882 26.6722 175.046 26.4232 175.154 26.1489C175.27 25.8593 175.328 25.5497 175.324 25.2379C175.327 24.9302 175.265 24.6253 175.141 24.3438C175.022 24.0781 174.85 23.8395 174.636 23.6427C174.429 23.4559 174.189 23.3089 173.928 23.2092C173.672 23.1102 173.4 23.0597 173.126 23.0602H171.561C171.106 23.0632 170.655 22.9816 170.23 22.8197C169.825 22.6653 169.452 22.4354 169.133 22.1424C168.814 21.8549 168.56 21.5027 168.388 21.1094C168.209 20.7004 168.119 20.2585 168.123 19.8123C168.124 19.3474 168.216 18.887 168.394 18.4576C168.561 18.0384 168.812 17.6579 169.133 17.34C169.454 17.0333 169.828 16.7877 170.237 16.6153C170.655 16.4369 171.106 16.347 171.561 16.3511H175.032C175.227 16.3397 175.42 16.3933 175.581 16.5035C175.648 16.5594 175.7 16.6302 175.734 16.7102C175.769 16.7903 175.783 16.8773 175.777 16.9641C175.783 17.0538 175.768 17.1436 175.734 17.2268C175.7 17.31 175.647 17.3846 175.581 17.445C175.424 17.5655 175.23 17.6256 175.032 17.6143H171.361C171.106 17.6134 170.853 17.6665 170.619 17.7701C170.383 17.8767 170.167 18.0246 169.983 18.207C169.794 18.401 169.646 18.6315 169.549 18.8844C169.445 19.1487 169.391 19.43 169.39 19.7141C169.387 19.9938 169.44 20.2713 169.546 20.5303C169.646 20.7822 169.795 21.0123 169.983 21.2077C170.167 21.391 170.383 21.5401 170.619 21.6479C170.852 21.7553 171.105 21.8108 171.361 21.8105H173.102C173.565 21.8147 174.024 21.9018 174.457 22.0679C174.874 22.231 175.257 22.4699 175.588 22.7723C175.908 23.0791 176.165 23.4463 176.343 23.8527C176.526 24.2675 176.62 24.7165 176.617 25.1701C176.619 25.6451 176.523 26.1152 176.336 26.5519C176.157 26.9829 175.896 27.3751 175.567 27.7068C175.242 28.0409 174.854 28.3078 174.426 28.4925C173.998 28.6771 173.537 28.7728 173.071 28.7736H169.539C169.345 28.7857 169.153 28.7227 169.004 28.5975Z" fill="#F5C938"/>
</g>
<defs>
<linearGradient id="paint0_linear_980_45969" x1="20.2629" y1="23.304" x2="27.8661" y2="15.7042" gradientUnits="userSpaceOnUse">
<stop stop-opacity="0"/>
<stop offset="0.58" stop-color="#030303" stop-opacity="0.06"/>
<stop offset="0.83" stop-color="#0F0E0E" stop-opacity="0.26"/>
<stop offset="1" stop-color="#231F20" stop-opacity="0.6"/>
</linearGradient>
<linearGradient id="paint1_linear_980_45969" x1="31.6829" y1="34.3989" x2="31.6829" y2="41.5991" gradientUnits="userSpaceOnUse">
<stop stop-opacity="0"/>
<stop offset="0.55" stop-color="#050404" stop-opacity="0.07"/>
<stop offset="0.86" stop-color="#151313" stop-opacity="0.3"/>
<stop offset="1" stop-color="#231F20" stop-opacity="0.5"/>
</linearGradient>
<linearGradient id="paint2_linear_980_45969" x1="38.1137" y1="25.9525" x2="48.1791" y2="15.8871" gradientUnits="userSpaceOnUse">
<stop stop-color="#231F20" stop-opacity="0.6"/>
<stop offset="0.19" stop-color="#231F20" stop-opacity="0.3"/>
<stop offset="0.48" stop-color="#231F20" stop-opacity="0.07"/>
<stop offset="1" stop-color="#231F20" stop-opacity="0"/>
</linearGradient>
<linearGradient id="paint3_linear_980_45969" x1="8.14922" y1="34.0433" x2="8.14922" y2="22.6944" gradientUnits="userSpaceOnUse">
<stop stop-opacity="0"/>
<stop offset="0.58" stop-color="#040404" stop-opacity="0.06"/>
<stop offset="0.86" stop-color="#131112" stop-opacity="0.28"/>
<stop offset="1" stop-color="#231F20" stop-opacity="0.5"/>
</linearGradient>
<clipPath id="clip0_980_45969">
<rect width="176.624" height="48" fill="white"/>
</clipPath>
</defs>
</svg>
